<svg width="20" height="16" viewBox="0 0 20 16" fill="none" xmlns="http://www.w3.org/2000/svg">
<g clip-path="url(#clip0_304_630)">
<path d="M12 0C7.584 0 4 3.584 4 8C4 12.416 7.584 16 12 16C16.416 16 20 12.416 20 8C20 3.584 16.416 0 12 0ZM12.8 13.6H11.2V12H12.8V13.6ZM14.456 7.4L13.736 8.136C13.16 8.72 12.8 9.2 12.8 10.4H11.2V10C11.2 9.12 11.56 8.32 12.136 7.736L13.128 6.728C13.424 6.44 13.6 6.04 13.6 5.6C13.6 4.72 12.88 4 12 4C11.12 4 10.4 4.72 10.4 5.6H8.8C8.8 3.832 10.232 2.4 12 2.4C13.768 2.4 15.2 3.832 15.2 5.6C15.2 6.304 14.912 6.944 14.456 7.4Z" fill="#E8E9FF"/>
</g>
<defs>
<clipPath id="clip0_304_630">
<rect width="16" height="16" fill="white" transform="translate(4)"/>
</clipPath>
</defs>
</svg>
