<svg width="45" height="18" viewBox="0 0 45 18" fill="none" xmlns="http://www.w3.org/2000/svg">
<path fill-rule="evenodd" clip-rule="evenodd" d="M2.52156 14.6478V11.1066C3.03734 10.9774 3.39839 10.5121 3.39839 9.9693C3.39839 9.42649 3.01156 8.96122 2.52156 8.83198V3.32633C3.01156 3.17124 3.3726 2.73182 3.3726 2.18901C3.3726 1.54281 2.83103 1 2.1863 1C1.54157 1 1 1.54281 1 2.18901C1 2.75767 1.38684 3.22294 1.90262 3.35218V8.83198C1.41263 8.96122 1.02579 9.42649 1.02579 9.9693C1.02579 10.5121 1.38684 10.9774 1.90262 11.1066V14.6737C1.41263 14.8029 1.02579 15.2682 1.02579 15.811C1.02579 16.4572 1.56736 17 2.21209 17C2.85682 17 3.39839 16.4572 3.39839 15.811C3.39839 15.2682 3.03734 14.8029 2.52156 14.6478ZM1.51578 2.18901C1.51578 1.82714 1.82525 1.51696 2.1863 1.51696C2.54735 1.51696 2.85682 1.82714 2.85682 2.18901C2.85682 2.55089 2.54735 2.86107 2.1863 2.86107C1.82525 2.86107 1.51578 2.55089 1.51578 2.18901ZM1.54157 9.9693C1.54157 9.60743 1.85104 9.29725 2.21209 9.29725C2.57314 9.29725 2.88261 9.60743 2.88261 9.9693C2.88261 10.3312 2.57314 10.6414 2.21209 10.6414C1.85104 10.6414 1.54157 10.3312 1.54157 9.9693ZM2.21209 16.483C1.85104 16.483 1.54157 16.1729 1.54157 15.811C1.54157 15.4491 1.85104 15.1389 2.21209 15.1389C2.57314 15.1389 2.88261 15.4491 2.88261 15.811C2.88261 16.1729 2.59893 16.483 2.21209 16.483ZM8.84 10.2021C8.37579 10.2797 7.75685 10.3314 6.95739 10.3314C6.91616 10.3314 6.8723 10.3287 6.82665 10.326C6.7295 10.3201 6.62424 10.3138 6.51897 10.3314H4.24953V9.73685H7.70527C8.89158 9.73685 9.84578 9.42667 10.5421 8.85801C11.2384 8.28935 11.5994 7.30712 11.5994 5.96302C11.5994 3.50745 10.4131 2.26674 8.01474 2.26674H4.24953V1.67223H7.98896C9.51052 1.67223 10.5937 2.05995 11.2642 2.8354C11.9347 3.58499 12.27 4.64476 12.27 5.96302C12.27 7.15203 11.9863 8.13426 11.4189 8.85801C10.8516 9.58176 9.97472 10.0212 8.84 10.2021ZM15.0553 15.501C15.8806 16.4574 17.3247 16.9227 19.3363 16.9227C20.3679 16.9227 21.3736 16.7159 22.2763 16.3282V15.7336C21.3221 16.1214 20.3679 16.3282 19.4137 16.3282C18.2016 16.3282 17.2216 16.1472 16.4995 15.8112C15.7774 15.4752 15.2616 14.9582 14.9521 14.2603C14.6427 13.5624 14.4622 12.6577 14.4364 11.5979H23.0499V9.68519C23.0499 8.90974 22.8952 8.186 22.6115 7.53979C22.3021 6.89359 21.8379 6.37663 21.2189 5.98891C20.6 5.60118 19.7489 5.3944 18.7174 5.3944C16.9379 5.3944 15.6742 5.88551 14.9264 6.89359C14.1785 7.90167 13.7916 9.27162 13.7916 11.0551C13.7916 13.0713 14.2301 14.5705 15.0553 15.501ZM22.4052 11.0034H14.4364C14.4364 9.42671 14.7716 8.21184 15.3906 7.33301C16.0095 6.42832 17.1184 5.98891 18.7174 5.98891C20.0068 5.98891 20.9352 6.32493 21.5284 7.02283C22.1215 7.72073 22.4052 8.62541 22.4052 9.78858V11.0034ZM25.6546 15.3718C26.4798 16.4057 27.8209 16.9227 29.7035 16.9227C30.3224 16.9227 30.864 16.871 31.3798 16.7676C31.8956 16.6642 32.334 16.5349 32.7466 16.354V15.7595C32.334 15.9146 31.8698 16.0697 31.3798 16.1731C30.864 16.2765 30.374 16.3282 29.884 16.3282C28.1561 16.3282 26.9183 15.8887 26.1962 15.0358C25.4741 14.1828 25.113 12.8645 25.113 11.1327C25.113 9.37501 25.5514 8.0826 26.4025 7.22962C27.2535 6.37663 28.4656 5.96306 30.0387 5.96306C30.5545 5.96306 31.0187 5.98891 31.4571 6.0923C31.8698 6.16984 32.3082 6.32493 32.7466 6.53172V5.93721C32.3598 5.75627 31.9471 5.62703 31.5603 5.52364C31.1477 5.44609 30.6061 5.3944 29.9356 5.3944C28.2335 5.3944 26.8925 5.85966 25.9125 6.81605C24.9325 7.77243 24.4425 9.21992 24.4425 11.1585C24.4425 12.9421 24.8293 14.3378 25.6546 15.3718ZM38.9101 16.9227C37.1306 16.9227 35.8411 16.4315 35.0675 15.4493C34.2938 14.4671 33.8812 13.0454 33.8812 11.1585C33.8812 9.27162 34.268 7.84997 35.0675 6.86774C35.8669 5.88551 37.1306 5.3944 38.9101 5.3944C40.6895 5.3944 41.9532 5.88551 42.7526 6.86774C43.5521 7.84997 43.9389 9.27162 43.9389 11.1585C43.9389 13.0454 43.5521 14.4671 42.7784 15.4493C42.0048 16.4315 40.7153 16.9227 38.9101 16.9227ZM38.9101 16.3282C40.5348 16.3282 41.6695 15.8887 42.3142 15.0358C42.9847 14.1828 43.2942 12.8904 43.2942 11.1585C43.2942 9.42671 42.959 8.1343 42.3142 7.28131C41.6437 6.42832 40.509 5.98891 38.9101 5.98891C37.3111 5.98891 36.1764 6.42832 35.5059 7.28131C34.8354 8.1343 34.5001 9.42671 34.5001 11.1585C34.5001 12.8904 34.8354 14.1828 35.4801 15.0358C36.1764 15.8887 37.3111 16.3282 38.9101 16.3282ZM11.3928 14.6478C11.4702 14.622 11.5218 14.622 11.5991 14.622C12.2697 14.622 12.8112 15.1389 12.7854 15.811C12.7854 16.4572 12.2439 17 11.5991 17C10.9544 17 10.4128 16.4572 10.4128 15.811C10.4128 15.4491 10.5934 15.1131 10.8512 14.9063L9.58758 11.9855C9.45863 11.6753 9.3039 11.391 9.14916 11.1842C9.35548 11.1583 9.58758 11.1066 9.79389 11.0291C9.92284 11.2359 10.0776 11.5202 10.2065 11.8304L11.3928 14.6478ZM11.0576 15.3974C10.9802 15.5267 10.9286 15.6559 10.9286 15.811C10.9286 16.1729 11.2381 16.483 11.5991 16.483C11.7281 16.483 11.8312 16.4313 11.9344 16.3796C11.9473 16.3796 11.9537 16.3732 11.9602 16.3667C11.9666 16.3603 11.9731 16.3538 11.986 16.3538C11.9989 16.3538 12.0053 16.3473 12.0118 16.3409C12.0182 16.3344 12.0247 16.3279 12.0375 16.3279C12.0633 16.3279 12.0891 16.3021 12.1149 16.2763C12.2181 16.147 12.2954 15.9919 12.2954 15.811C12.2954 15.4491 11.986 15.1389 11.6249 15.1389H11.5991C11.367 15.1389 11.1865 15.2423 11.0576 15.3974Z" fill="white"/>
<path d="M2.52156 11.1066L2.47295 10.9126L2.32156 10.9505V11.1066H2.52156ZM2.52156 14.6478H2.32156V14.7965L2.46397 14.8393L2.52156 14.6478ZM2.52156 8.83198H2.32156V8.98607L2.47055 9.02537L2.52156 8.83198ZM2.52156 3.32633L2.46121 3.13565L2.32156 3.17985V3.32633H2.52156ZM1.90262 3.35218H2.10262V3.19611L1.95123 3.15818L1.90262 3.35218ZM1.90262 8.83198L1.95363 9.02537L2.10262 8.98607V8.83198H1.90262ZM1.90262 11.1066H2.10262V10.9505L1.95123 10.9126L1.90262 11.1066ZM1.90262 14.6737L1.95363 14.867L2.10262 14.8277V14.6737H1.90262ZM8.84 10.2021L8.8085 10.0046L8.80704 10.0048L8.84 10.2021ZM6.82665 10.326L6.83868 10.1263H6.83868L6.82665 10.326ZM6.51897 10.3314V10.5314H6.53556L6.55193 10.5286L6.51897 10.3314ZM4.24953 10.3314H4.04953V10.5314H4.24953V10.3314ZM4.24953 9.73685V9.53685H4.04953V9.73685H4.24953ZM10.5421 8.85801L10.4156 8.7031V8.7031L10.5421 8.85801ZM4.24953 2.26674H4.04953V2.46674H4.24953V2.26674ZM4.24953 1.67223V1.47223H4.04953V1.67223H4.24953ZM11.2642 2.8354L11.1129 2.96623L11.1151 2.96874L11.2642 2.8354ZM11.4189 8.85801L11.2615 8.73462H11.2615L11.4189 8.85801ZM15.0553 15.501L15.2067 15.3703L15.2049 15.3683L15.0553 15.501ZM22.2763 16.3282L22.3552 16.5119L22.4763 16.4599V16.3282H22.2763ZM22.2763 15.7336H22.4763V15.4365L22.201 15.5484L22.2763 15.7336ZM14.9521 14.2603L15.135 14.1792L14.9521 14.2603ZM14.4364 11.5979V11.3979H14.2314L14.2364 11.6028L14.4364 11.5979ZM23.0499 11.5979V11.7979H23.2499V11.5979H23.0499ZM22.6115 7.53979L22.7948 7.45936L22.7919 7.45341L22.6115 7.53979ZM21.2189 5.98891L21.1127 6.1584L21.2189 5.98891ZM14.9264 6.89359L15.087 7.01275L14.9264 6.89359ZM14.4364 11.0034H14.2364V11.2034H14.4364V11.0034ZM22.4052 11.0034V11.2034H22.6052V11.0034H22.4052ZM15.3906 7.33301L15.5541 7.44818L15.5556 7.44594L15.3906 7.33301ZM21.5284 7.02283L21.376 7.15235V7.15235L21.5284 7.02283ZM25.6546 15.3718L25.4983 15.4965L25.6546 15.3718ZM32.7466 16.354L32.8269 16.5372L32.9466 16.4847V16.354H32.7466ZM32.7466 15.7595H32.9466V15.4707L32.6762 15.5723L32.7466 15.7595ZM31.3798 16.1731L31.4191 16.3692L31.4211 16.3688L31.3798 16.1731ZM26.4025 7.22962L26.2609 7.08836L26.4025 7.22962ZM31.4571 6.0923L31.4112 6.28716L31.4202 6.28886L31.4571 6.0923ZM32.7466 6.53172L32.6613 6.7126L32.9466 6.84718V6.53172H32.7466ZM32.7466 5.93721H32.9466V5.80996L32.8313 5.75605L32.7466 5.93721ZM31.5603 5.52364L31.6119 5.33042L31.6047 5.32847L31.5972 5.32708L31.5603 5.52364ZM25.9125 6.81605L26.0522 6.95918L25.9125 6.81605ZM35.0675 15.4493L34.9104 15.5731H34.9104L35.0675 15.4493ZM35.0675 6.86774L34.9124 6.74149V6.74149L35.0675 6.86774ZM42.7526 6.86774L42.5975 6.99399V6.99399L42.7526 6.86774ZM42.7784 15.4493L42.6213 15.3256L42.7784 15.4493ZM42.3142 15.0358L42.157 14.9121L42.1547 14.9152L42.3142 15.0358ZM42.3142 7.28131L42.4738 7.16069L42.4715 7.15771L42.3142 7.28131ZM35.5059 7.28131L35.3486 7.15771V7.15771L35.5059 7.28131ZM35.4801 15.0358L35.3204 15.1564L35.3252 15.1622L35.4801 15.0358ZM11.3928 14.6478L11.2085 14.7254L11.2804 14.8962L11.4562 14.8375L11.3928 14.6478ZM12.7854 15.811L12.5854 15.8033V15.811H12.7854ZM10.8512 14.9063L10.9764 15.0623L11.0954 14.9669L11.0348 14.8269L10.8512 14.9063ZM9.58758 11.9855L9.40288 12.0622L9.40402 12.0649L9.58758 11.9855ZM9.14916 11.1842L9.1243 10.9857L8.78288 11.0285L8.98903 11.304L9.14916 11.1842ZM9.79389 11.0291L9.9636 10.9233L9.8769 10.7842L9.72353 10.8419L9.79389 11.0291ZM10.2065 11.8304L10.0218 11.9071L10.0222 11.908L10.2065 11.8304ZM11.0576 15.3974L10.9038 15.2696L10.8939 15.2814L10.886 15.2947L11.0576 15.3974ZM11.9344 16.3796V16.1796H11.8871L11.8448 16.2008L11.9344 16.3796ZM12.1149 16.2763L12.2565 16.4175L12.2643 16.4097L12.2712 16.401L12.1149 16.2763ZM2.32156 11.1066V14.6478H2.72156V11.1066H2.32156ZM3.19839 9.9693C3.19839 10.4221 2.89814 10.8061 2.47295 10.9126L2.57017 11.3006C3.17655 11.1487 3.59839 10.6022 3.59839 9.9693H3.19839ZM2.47055 9.02537C2.87643 9.13242 3.19839 9.52106 3.19839 9.9693H3.59839C3.59839 9.33192 3.14668 8.79002 2.57257 8.6386L2.47055 9.02537ZM2.32156 3.32633V8.83198H2.72156V3.32633H2.32156ZM3.1726 2.18901C3.1726 2.63705 2.87551 3.00453 2.46121 3.13565L2.58191 3.51701C3.14761 3.33796 3.5726 2.8266 3.5726 2.18901H3.1726ZM2.1863 1.2C2.72014 1.2 3.1726 1.65284 3.1726 2.18901H3.5726C3.5726 1.43278 2.94192 0.8 2.1863 0.8V1.2ZM1.2 2.18901C1.2 1.65284 1.65246 1.2 2.1863 1.2V0.8C1.43069 0.8 0.8 1.43278 0.8 2.18901H1.2ZM1.95123 3.15818C1.52209 3.05065 1.2 2.66355 1.2 2.18901H0.8C0.8 2.8518 1.25159 3.39523 1.85401 3.54618L1.95123 3.15818ZM2.10262 8.83198V3.35218H1.70262V8.83198H2.10262ZM1.22579 9.9693C1.22579 9.52106 1.54776 9.13242 1.95363 9.02537L1.85161 8.6386C1.2775 8.79002 0.825789 9.33192 0.825789 9.9693H1.22579ZM1.95123 10.9126C1.52605 10.8061 1.22579 10.4221 1.22579 9.9693H0.825789C0.825789 10.6022 1.24763 11.1487 1.85401 11.3006L1.95123 10.9126ZM2.10262 14.6737V11.1066H1.70262V14.6737H2.10262ZM1.22579 15.811C1.22579 15.3627 1.54776 14.9741 1.95363 14.867L1.85161 14.4803C1.2775 14.6317 0.825789 15.1736 0.825789 15.811H1.22579ZM2.21209 16.8C1.67825 16.8 1.22579 16.3472 1.22579 15.811H0.825789C0.825789 16.5672 1.45647 17.2 2.21209 17.2V16.8ZM3.19839 15.811C3.19839 16.3472 2.74593 16.8 2.21209 16.8V17.2C2.96771 17.2 3.59839 16.5672 3.59839 15.811H3.19839ZM2.46397 14.8393C2.89862 14.97 3.19839 15.3599 3.19839 15.811H3.59839C3.59839 15.1764 3.17607 14.6358 2.57915 14.4563L2.46397 14.8393ZM2.1863 1.31696C1.71437 1.31696 1.31578 1.71711 1.31578 2.18901H1.71578C1.71578 1.93717 1.93614 1.71696 2.1863 1.71696V1.31696ZM3.05682 2.18901C3.05682 1.71711 2.65824 1.31696 2.1863 1.31696V1.71696C2.43646 1.71696 2.65682 1.93717 2.65682 2.18901H3.05682ZM2.1863 3.06107C2.65824 3.06107 3.05682 2.66091 3.05682 2.18901H2.65682C2.65682 2.44086 2.43646 2.66107 2.1863 2.66107V3.06107ZM1.31578 2.18901C1.31578 2.66091 1.71437 3.06107 2.1863 3.06107V2.66107C1.93614 2.66107 1.71578 2.44086 1.71578 2.18901H1.31578ZM2.21209 9.09725C1.74016 9.09725 1.34157 9.4974 1.34157 9.9693H1.74157C1.74157 9.71745 1.96193 9.49725 2.21209 9.49725V9.09725ZM3.08261 9.9693C3.08261 9.4974 2.68403 9.09725 2.21209 9.09725V9.49725C2.46225 9.49725 2.68261 9.71745 2.68261 9.9693H3.08261ZM2.21209 10.8414C2.68403 10.8414 3.08261 10.4412 3.08261 9.9693H2.68261C2.68261 10.2211 2.46225 10.4414 2.21209 10.4414V10.8414ZM1.34157 9.9693C1.34157 10.4412 1.74016 10.8414 2.21209 10.8414V10.4414C1.96193 10.4414 1.74157 10.2211 1.74157 9.9693H1.34157ZM1.34157 15.811C1.34157 16.2829 1.74016 16.683 2.21209 16.683V16.283C1.96193 16.283 1.74157 16.0628 1.74157 15.811H1.34157ZM2.21209 14.9389C1.74016 14.9389 1.34157 15.3391 1.34157 15.811H1.74157C1.74157 15.5591 1.96193 15.3389 2.21209 15.3389V14.9389ZM3.08261 15.811C3.08261 15.3391 2.68403 14.9389 2.21209 14.9389V15.3389C2.46225 15.3389 2.68261 15.5591 2.68261 15.811H3.08261ZM2.21209 16.683C2.7148 16.683 3.08261 16.2778 3.08261 15.811H2.68261C2.68261 16.0679 2.48305 16.283 2.21209 16.283V16.683ZM6.95739 10.5314C7.76489 10.5314 8.39525 10.4792 8.87295 10.3994L8.80704 10.0048C8.35634 10.0801 7.74882 10.1314 6.95739 10.1314V10.5314ZM6.81462 10.5256C6.85893 10.5283 6.90903 10.5314 6.95739 10.5314V10.1314C6.9233 10.1314 6.88568 10.1292 6.83868 10.1263L6.81462 10.5256ZM6.55193 10.5286C6.63132 10.5154 6.71422 10.5196 6.81462 10.5256L6.83868 10.1263C6.74479 10.1207 6.61716 10.1122 6.48602 10.1341L6.55193 10.5286ZM4.24953 10.5314H6.51897V10.1314H4.24953V10.5314ZM4.04953 9.73685V10.3314H4.44953V9.73685H4.04953ZM7.70527 9.53685H4.24953V9.93685H7.70527V9.53685ZM10.4156 8.7031C9.76296 9.23608 8.85695 9.53685 7.70527 9.53685V9.93685C8.9262 9.93685 9.92859 9.61726 10.6686 9.01291L10.4156 8.7031ZM11.3994 5.96302C11.3994 7.27692 11.0464 8.18796 10.4156 8.7031L10.6686 9.01291C11.4304 8.39074 11.7994 7.33733 11.7994 5.96302H11.3994ZM8.01474 2.46674C9.18135 2.46674 10.0168 2.76811 10.5627 3.33302C11.1098 3.89921 11.3994 4.76437 11.3994 5.96302H11.7994C11.7994 4.70609 11.4959 3.72312 10.8503 3.05506C10.2035 2.38572 9.24653 2.06674 8.01474 2.06674V2.46674ZM4.24953 2.46674H8.01474V2.06674H4.24953V2.46674ZM4.04953 1.67223V2.26674H4.44953V1.67223H4.04953ZM7.98896 1.47223H4.24953V1.87223H7.98896V1.47223ZM11.4155 2.70458C10.6919 1.86776 9.54068 1.47223 7.98896 1.47223V1.87223C9.48036 1.87223 10.4955 2.25215 11.1129 2.96621L11.4155 2.70458ZM12.47 5.96302C12.47 4.61237 12.1263 3.49917 11.4132 2.70206L11.1151 2.96874C11.7431 3.67082 12.07 4.67716 12.07 5.96302H12.47ZM11.5763 8.9814C12.179 8.21259 12.47 7.18238 12.47 5.96302H12.07C12.07 7.12168 11.7935 8.05594 11.2615 8.73462L11.5763 8.9814ZM8.87149 10.3996C10.0392 10.2134 10.9687 9.75648 11.5763 8.9814L11.2615 8.73462C10.7344 9.40703 9.91024 9.82893 8.80851 10.0046L8.87149 10.3996ZM19.3363 16.7227C17.3464 16.7227 15.9753 16.2611 15.2067 15.3704L14.9039 15.6317C15.7858 16.6537 17.303 17.1227 19.3363 17.1227V16.7227ZM22.1973 16.1444C21.3203 16.5211 20.3414 16.7227 19.3363 16.7227V17.1227C20.3943 17.1227 21.427 16.9106 22.3552 16.5119L22.1973 16.1444ZM22.0763 15.7336V16.3282H22.4763V15.7336H22.0763ZM19.4137 16.5282C20.3973 16.5282 21.3771 16.3149 22.3516 15.9189L22.201 15.5484C21.2671 15.9278 20.3384 16.1282 19.4137 16.1282V16.5282ZM16.4151 15.9925C17.1727 16.3451 18.1845 16.5282 19.4137 16.5282V16.1282C18.2187 16.1282 17.2704 15.9494 16.5839 15.6299L16.4151 15.9925ZM14.7693 14.3414C15.0993 15.0856 15.6512 15.6371 16.4151 15.9925L16.5839 15.6299C15.9036 15.3133 15.4239 14.8309 15.135 14.1792L14.7693 14.3414ZM14.2364 11.6028C14.2627 12.6807 14.4463 13.613 14.7693 14.3414L15.135 14.1792C14.839 13.5119 14.6617 12.6347 14.6363 11.5931L14.2364 11.6028ZM23.0499 11.3979H14.4364V11.7979H23.0499V11.3979ZM22.8499 9.68519V11.5979H23.2499V9.68519H22.8499ZM22.4284 7.62019C22.7006 8.24031 22.8499 8.9366 22.8499 9.68519H23.2499C23.2499 8.88288 23.0898 8.13168 22.7947 7.4594L22.4284 7.62019ZM21.1127 6.1584C21.7002 6.52642 22.1384 7.01484 22.4311 7.62618L22.7919 7.45341C22.4657 6.77234 21.9755 6.22684 21.3251 5.81941L21.1127 6.1584ZM18.7174 5.5944C19.7249 5.5944 20.5354 5.79674 21.1127 6.1584L21.3251 5.81941C20.6645 5.40562 19.773 5.1944 18.7174 5.1944V5.5944ZM15.087 7.01275C15.7824 6.07537 16.9716 5.5944 18.7174 5.5944V5.1944C16.9042 5.1944 15.5661 5.69565 14.7657 6.77443L15.087 7.01275ZM13.9916 11.0551C13.9916 9.29921 14.3725 7.97581 15.087 7.01275L14.7657 6.77443C13.9844 7.82753 13.5916 9.24403 13.5916 11.0551H13.9916ZM15.2049 15.3683C14.4262 14.4903 13.9916 13.0489 13.9916 11.0551H13.5916C13.5916 13.0936 14.0339 14.6507 14.9057 15.6337L15.2049 15.3683ZM14.4364 11.2034H22.4052V10.8034H14.4364V11.2034ZM15.227 7.21785C14.5771 8.14068 14.2364 9.40015 14.2364 11.0034H14.6364C14.6364 9.45326 14.9661 8.28301 15.5541 7.44817L15.227 7.21785ZM18.7174 5.78891C17.0865 5.78891 15.8975 6.2378 15.2255 7.22008L15.5556 7.44594C16.1215 6.61885 17.1504 6.18891 18.7174 6.18891V5.78891ZM21.6808 6.89331C21.0354 6.13399 20.0393 5.78891 18.7174 5.78891V6.18891C19.9743 6.18891 20.835 6.51588 21.376 7.15235L21.6808 6.89331ZM22.6052 9.78858C22.6052 8.59184 22.3126 7.6367 21.6808 6.89331L21.376 7.15235C21.9305 7.80476 22.2052 8.65899 22.2052 9.78858H22.6052ZM22.6052 11.0034V9.78858H22.2052V11.0034H22.6052ZM29.7035 16.7227C27.8553 16.7227 26.5843 16.216 25.8109 15.247L25.4983 15.4965C26.3754 16.5954 27.7864 17.1227 29.7035 17.1227V16.7227ZM31.3405 16.5715C30.8391 16.672 30.3109 16.7227 29.7035 16.7227V17.1227C30.334 17.1227 30.8889 17.07 31.4191 16.9637L31.3405 16.5715ZM32.6663 16.1708C32.2699 16.3446 31.8459 16.4702 31.3405 16.5715L31.4191 16.9637C31.9452 16.8582 32.398 16.7252 32.8269 16.5372L32.6663 16.1708ZM32.5466 15.7595V16.354H32.9466V15.7595H32.5466ZM31.4211 16.3688C31.925 16.2624 32.3997 16.1035 32.817 15.9467L32.6762 15.5723C32.2682 15.7256 31.8146 15.8769 31.3385 15.9774L31.4211 16.3688ZM29.884 16.5282C30.3885 16.5282 30.8917 16.4749 31.4191 16.3692L31.3405 15.977C30.8363 16.078 30.3595 16.1282 29.884 16.1282V16.5282ZM26.0435 15.165C26.8199 16.0821 28.1284 16.5282 29.884 16.5282V16.1282C28.1838 16.1282 27.0166 15.6953 26.3488 14.9065L26.0435 15.165ZM24.913 11.1327C24.913 12.8862 25.2776 14.2602 26.0435 15.165L26.3488 14.9065C25.6705 14.1053 25.313 12.8428 25.313 11.1327H24.913ZM26.2609 7.08836C25.3592 7.9921 24.913 9.3443 24.913 11.1327H25.313C25.313 9.40572 25.7437 8.17311 26.5441 7.37088L26.2609 7.08836ZM30.0387 5.76306C28.4309 5.76306 27.1607 6.18645 26.2609 7.08836L26.5441 7.37088C27.3463 6.56681 28.5003 6.16306 30.0387 6.16306V5.76306ZM31.5031 5.89764C31.0421 5.78893 30.5597 5.76306 30.0387 5.76306V6.16306C30.5494 6.16306 30.9954 6.18888 31.4112 6.28696L31.5031 5.89764ZM32.8319 6.35083C32.3828 6.13901 31.9279 5.97726 31.4941 5.89574L31.4202 6.28886C31.8117 6.36242 32.2335 6.51085 32.6613 6.7126L32.8319 6.35083ZM32.5466 5.93721V6.53172H32.9466V5.93721H32.5466ZM31.5087 5.71686C31.8906 5.81893 32.2904 5.94461 32.6619 6.11837L32.8313 5.75605C32.4292 5.56794 32.0037 5.43514 31.6119 5.33042L31.5087 5.71686ZM29.9356 5.5944C30.5964 5.5944 31.1253 5.64539 31.5234 5.7202L31.5972 5.32708C31.1701 5.2468 30.6158 5.1944 29.9356 5.1944V5.5944ZM26.0522 6.95918C26.9854 6.0484 28.271 5.5944 29.9356 5.5944V5.1944C28.1961 5.1944 26.7995 5.67093 25.7728 6.67291L26.0522 6.95918ZM24.6425 11.1585C24.6425 9.25108 25.1244 7.86456 26.0522 6.95918L25.7728 6.67291C24.7405 7.68029 24.2425 9.18876 24.2425 11.1585H24.6425ZM25.8109 15.247C25.0235 14.2605 24.6425 12.9148 24.6425 11.1585H24.2425C24.2425 12.9693 24.6352 14.4152 25.4983 15.4965L25.8109 15.247ZM34.9104 15.5731C35.7363 16.6217 37.0971 17.1227 38.9101 17.1227V16.7227C37.1641 16.7227 35.9459 16.2414 35.2246 15.3256L34.9104 15.5731ZM33.6812 11.1585C33.6812 13.0717 34.0992 14.5433 34.9104 15.5731L35.2246 15.3256C34.4883 14.3909 34.0812 13.0192 34.0812 11.1585H33.6812ZM34.9124 6.74149C34.0722 7.77373 33.6812 9.24834 33.6812 11.1585H34.0812C34.0812 9.2949 34.4638 7.92621 35.2226 6.99399L34.9124 6.74149ZM38.9101 5.1944C37.0948 5.1944 35.7629 5.6965 34.9124 6.74149L35.2226 6.99399C35.971 6.07453 37.1664 5.5944 38.9101 5.5944V5.1944ZM42.9078 6.74149C42.0572 5.6965 40.7253 5.1944 38.9101 5.1944V5.5944C40.6537 5.5944 41.8492 6.07453 42.5975 6.99399L42.9078 6.74149ZM44.1389 11.1585C44.1389 9.24834 43.7479 7.77373 42.9078 6.74149L42.5975 6.99399C43.3563 7.92621 43.7389 9.2949 43.7389 11.1585H44.1389ZM42.9355 15.5731C43.7478 14.5418 44.1389 13.0689 44.1389 11.1585H43.7389C43.7389 13.022 43.3564 14.3924 42.6213 15.3256L42.9355 15.5731ZM38.9101 17.1227C40.7482 17.1227 42.1093 16.622 42.9355 15.5731L42.6213 15.3256C41.9002 16.2411 40.6824 16.7227 38.9101 16.7227V17.1227ZM42.1547 14.9152C41.5635 15.6973 40.5038 16.1282 38.9101 16.1282V16.5282C40.5657 16.5282 41.7755 16.0802 42.4738 15.1563L42.1547 14.9152ZM43.0942 11.1585C43.0942 12.8737 42.7863 14.1115 42.157 14.9122L42.4715 15.1594C43.1831 14.254 43.4942 12.907 43.4942 11.1585H43.0942ZM42.1547 7.40191C42.7619 8.20533 43.0942 9.44698 43.0942 11.1585H43.4942C43.4942 9.40643 43.156 8.06327 42.4738 7.16072L42.1547 7.40191ZM38.9101 6.18891C40.476 6.18891 41.539 6.61875 42.157 7.40491L42.4715 7.15771C41.7484 6.2379 40.542 5.78891 38.9101 5.78891V6.18891ZM35.6631 7.40491C36.2811 6.61875 37.3441 6.18891 38.9101 6.18891V5.78891C37.2781 5.78891 36.0717 6.2379 35.3486 7.15771L35.6631 7.40491ZM34.7001 11.1585C34.7001 9.44662 35.0325 8.2071 35.6631 7.40491L35.3486 7.15771C34.6382 8.0615 34.3001 9.40679 34.3001 11.1585H34.7001ZM35.6396 14.9152C35.0324 14.1117 34.7001 12.8701 34.7001 11.1585H34.3001C34.3001 12.9106 34.6383 14.2538 35.3205 15.1563L35.6396 14.9152ZM38.9101 16.1282C37.3455 16.1282 36.2796 15.6989 35.635 14.9093L35.3252 15.1622C36.0732 16.0786 37.2768 16.5282 38.9101 16.5282V16.1282ZM11.5991 14.422C11.5199 14.422 11.44 14.4212 11.3294 14.4581L11.4562 14.8375C11.5004 14.8227 11.5236 14.822 11.5991 14.822V14.422ZM12.9853 15.8187C13.0158 15.0235 12.3732 14.422 11.5991 14.422V14.822C12.1661 14.822 12.6066 15.2543 12.5856 15.8033L12.9853 15.8187ZM11.5991 17.2C12.3547 17.2 12.9854 16.5672 12.9854 15.811H12.5854C12.5854 16.3472 12.133 16.8 11.5991 16.8V17.2ZM10.2128 15.811C10.2128 16.5672 10.8435 17.2 11.5991 17.2V16.8C11.0653 16.8 10.6128 16.3472 10.6128 15.811H10.2128ZM10.7261 14.7503C10.4245 14.9921 10.2128 15.384 10.2128 15.811H10.6128C10.6128 15.5142 10.7622 15.234 10.9764 15.0623L10.7261 14.7503ZM9.40402 12.0649L10.6677 14.9857L11.0348 14.8269L9.77114 11.906L9.40402 12.0649ZM8.98903 11.304C9.13112 11.4939 9.27831 11.7625 9.4029 12.0622L9.77226 11.9087C9.63895 11.588 9.47667 11.288 9.30929 11.0643L8.98903 11.304ZM9.72353 10.8419C9.5344 10.913 9.31797 10.9615 9.1243 10.9857L9.17403 11.3826C9.39298 11.3552 9.64075 11.3003 9.86426 11.2163L9.72353 10.8419ZM10.3912 11.7536C10.2575 11.432 10.0975 11.1379 9.9636 10.9233L9.62418 11.1349C9.74821 11.3338 9.89766 11.6084 10.0218 11.9071L10.3912 11.7536ZM11.5771 14.5702L10.3908 11.7528L10.0222 11.908L11.2085 14.7254L11.5771 14.5702ZM11.1286 15.811C11.1286 15.705 11.1624 15.6117 11.2292 15.5001L10.886 15.2947C10.798 15.4417 10.7286 15.6068 10.7286 15.811H11.1286ZM11.5991 16.283C11.349 16.283 11.1286 16.0628 11.1286 15.811H10.7286C10.7286 16.2829 11.1272 16.683 11.5991 16.683V16.283ZM11.8448 16.2008C11.7371 16.2548 11.6742 16.283 11.5991 16.283V16.683C11.7819 16.683 11.9254 16.6079 12.024 16.5584L11.8448 16.2008ZM11.8186 16.2255C11.8127 16.2313 11.8262 16.2165 11.8466 16.2042C11.873 16.1883 11.9037 16.1796 11.9344 16.1796V16.5796C12.0354 16.5796 12.0933 16.5165 12.1018 16.508L11.8186 16.2255ZM11.986 16.1538C11.885 16.1538 11.8271 16.217 11.8186 16.2255L12.1018 16.508C12.1076 16.5021 12.0942 16.5169 12.0737 16.5292C12.0473 16.5451 12.0166 16.5538 11.986 16.5538V16.1538ZM11.8702 16.1996C11.8643 16.2055 11.8778 16.1907 11.8982 16.1784C11.9246 16.1625 11.9553 16.1538 11.986 16.1538V16.5538C12.087 16.5538 12.1449 16.4906 12.1533 16.4821L11.8702 16.1996ZM12.0375 16.1279C11.9365 16.1279 11.8787 16.1911 11.8702 16.1996L12.1533 16.4821C12.1592 16.4763 12.1458 16.4911 12.1253 16.5034C12.0989 16.5193 12.0682 16.5279 12.0375 16.5279V16.1279ZM11.9733 16.135C11.9665 16.1419 11.9623 16.146 11.9586 16.1495C11.955 16.1529 11.9544 16.1531 11.9561 16.1519C11.9574 16.1509 11.9645 16.1456 11.9766 16.1403C11.9891 16.1349 12.0102 16.1279 12.0375 16.1279V16.5279C12.1158 16.5279 12.1721 16.49 12.1964 16.4717C12.2229 16.4518 12.2462 16.4278 12.2565 16.4175L11.9733 16.135ZM12.0954 15.811C12.0954 15.9318 12.0444 16.044 11.9586 16.1515L12.2712 16.401C12.3918 16.25 12.4954 16.0521 12.4954 15.811H12.0954ZM11.6249 15.3389C11.8751 15.3389 12.0954 15.5591 12.0954 15.811H12.4954C12.4954 15.3391 12.0969 14.9389 11.6249 14.9389V15.3389ZM11.5991 15.3389H11.6249V14.9389H11.5991V15.3389ZM11.2113 15.5253C11.3073 15.4098 11.4339 15.3389 11.5991 15.3389V14.9389C11.3002 14.9389 11.0657 15.0748 10.9038 15.2696L11.2113 15.5253Z" fill="white"/>
</svg>
