<svg width="44" height="44" viewBox="0 0 44 44" fill="none" xmlns="http://www.w3.org/2000/svg">
<circle cx="22" cy="22" r="21.5" fill="white" stroke="#E8E9FF"/>
<path fill-rule="evenodd" clip-rule="evenodd" d="M8.37275 25.8234V23.4043C8.7251 23.316 8.97175 22.9981 8.97175 22.6273C8.97175 22.2565 8.70749 21.9387 8.37275 21.8504V18.0892C8.70749 17.9833 8.95413 17.6831 8.95413 17.3123C8.95413 16.8708 8.58416 16.5 8.14372 16.5C7.70328 16.5 7.33331 16.8708 7.33331 17.3123C7.33331 17.7007 7.59758 18.0186 7.94993 18.1069V21.8504C7.61519 21.9387 7.35093 22.2565 7.35093 22.6273C7.35093 22.9981 7.59758 23.316 7.94993 23.4043V25.8411C7.61519 25.9294 7.35093 26.2472 7.35093 26.618C7.35093 27.0595 7.7209 27.4303 8.16134 27.4303C8.60178 27.4303 8.97175 27.0595 8.97175 26.618C8.97175 26.2472 8.7251 25.9294 8.37275 25.8234ZM7.68567 17.3123C7.68567 17.0651 7.89708 16.8532 8.14372 16.8532C8.39037 16.8532 8.60178 17.0651 8.60178 17.3123C8.60178 17.5595 8.39037 17.7714 8.14372 17.7714C7.89708 17.7714 7.68567 17.5595 7.68567 17.3123ZM7.70328 22.6273C7.70328 22.3801 7.91469 22.1682 8.16134 22.1682C8.40799 22.1682 8.6194 22.3801 8.6194 22.6273C8.6194 22.8745 8.40799 23.0864 8.16134 23.0864C7.91469 23.0864 7.70328 22.8745 7.70328 22.6273ZM8.16134 27.0771C7.91469 27.0771 7.70328 26.8652 7.70328 26.618C7.70328 26.3708 7.91469 26.1589 8.16134 26.1589C8.40799 26.1589 8.6194 26.3708 8.6194 26.618C8.6194 26.8652 8.42561 27.0771 8.16134 27.0771ZM12.6891 22.7863C12.372 22.8392 11.9492 22.8745 11.403 22.8745C11.3749 22.8745 11.3449 22.8727 11.3137 22.8709C11.2474 22.8669 11.1755 22.8625 11.1035 22.8745H9.55319V22.4684H11.914C12.7244 22.4684 13.3762 22.2565 13.8519 21.868C14.3276 21.4796 14.5742 20.8086 14.5742 19.8903C14.5742 18.2128 13.7638 17.3653 12.1254 17.3653H9.55319V16.9591H12.1077C13.1472 16.9591 13.8871 17.224 14.3452 17.7537C14.8032 18.2658 15.0323 18.9898 15.0323 19.8903C15.0323 20.7026 14.8385 21.3736 14.4509 21.868C14.0633 22.3625 13.4643 22.6626 12.6891 22.7863ZM16.9351 26.4062C17.4988 27.0595 18.4854 27.3774 19.8596 27.3774C20.5643 27.3774 21.2514 27.2361 21.868 26.9712V26.5651C21.2161 26.83 20.5643 26.9712 19.9124 26.9712C19.0844 26.9712 18.4149 26.8476 17.9216 26.6181C17.4283 26.3885 17.076 26.0354 16.8646 25.5586C16.6532 25.0818 16.5298 24.4638 16.5122 23.7398H22.3965V22.4331C22.3965 21.9034 22.2908 21.409 22.097 20.9675C21.8856 20.5261 21.5685 20.1729 21.1457 19.908C20.7228 19.6432 20.1415 19.5019 19.4368 19.5019C18.2211 19.5019 17.3579 19.8374 16.847 20.5261C16.3361 21.2147 16.0718 22.1506 16.0718 23.369C16.0718 24.7463 16.3713 25.7705 16.9351 26.4062ZM21.9561 23.3337H16.5122C16.5122 22.2565 16.7413 21.4266 17.1641 20.8262C17.5869 20.2082 18.3445 19.908 19.4368 19.908C20.3176 19.908 20.9519 20.1376 21.3571 20.6143C21.7623 21.0911 21.9561 21.7091 21.9561 22.5038V23.3337ZM24.1758 26.3179C24.7396 27.0242 25.6557 27.3774 26.9418 27.3774C27.3646 27.3774 27.7346 27.342 28.087 27.2714C28.4393 27.2008 28.7388 27.1125 29.0207 26.9889V26.5827C28.7388 26.6887 28.4217 26.7946 28.087 26.8653C27.7346 26.9359 27.3999 26.9712 27.0651 26.9712C25.8848 26.9712 25.0391 26.671 24.5458 26.0883C24.0525 25.5056 23.8059 24.6051 23.8059 23.422C23.8059 22.2212 24.1054 21.3383 24.6868 20.7556C25.2681 20.1729 26.0962 19.8904 27.1708 19.8904C27.5232 19.8904 27.8403 19.908 28.1398 19.9787C28.4217 20.0316 28.7212 20.1376 29.0207 20.2788V19.8727C28.7564 19.7491 28.4745 19.6608 28.2103 19.5902C27.9284 19.5372 27.5584 19.5019 27.1004 19.5019C25.9376 19.5019 25.0215 19.8197 24.352 20.4731C23.6826 21.1264 23.3478 22.1153 23.3478 23.4396C23.3478 24.658 23.6121 25.6116 24.1758 26.3179ZM33.2312 27.3774C32.0156 27.3774 31.1347 27.0419 30.6062 26.3709C30.0776 25.6998 29.7958 24.7287 29.7958 23.4396C29.7958 22.1506 30.06 21.1794 30.6062 20.5084C31.1523 19.8374 32.0156 19.5019 33.2312 19.5019C34.4468 19.5019 35.3101 19.8374 35.8562 20.5084C36.4024 21.1794 36.6666 22.1506 36.6666 23.4396C36.6666 24.7287 36.4024 25.6998 35.8738 26.3709C35.3453 27.0419 34.4644 27.3774 33.2312 27.3774ZM33.2312 26.9712C34.3411 26.9712 35.1163 26.671 35.5567 26.0883C36.0148 25.5056 36.2262 24.6227 36.2262 23.4396C36.2262 22.2565 35.9972 21.3736 35.5567 20.7909C35.0987 20.2082 34.3235 19.908 33.2312 19.908C32.1389 19.908 31.3637 20.2082 30.9057 20.7909C30.4476 21.3736 30.2186 22.2565 30.2186 23.4396C30.2186 24.6227 30.4476 25.5056 30.888 26.0883C31.3637 26.671 32.1389 26.9712 33.2312 26.9712ZM14.4331 25.8234C14.4859 25.8058 14.5212 25.8058 14.574 25.8058C15.0321 25.8058 15.402 26.1589 15.3844 26.618C15.3844 27.0595 15.0144 27.4303 14.574 27.4303C14.1336 27.4303 13.7636 27.0595 13.7636 26.618C13.7636 26.3708 13.8869 26.1413 14.0631 26L13.1998 24.0047C13.1117 23.7928 13.006 23.5985 12.9003 23.4573C13.0413 23.4396 13.1998 23.4043 13.3408 23.3513C13.4289 23.4926 13.5346 23.6868 13.6227 23.8987L14.4331 25.8234ZM14.204 26.3355C14.1512 26.4238 14.1159 26.5121 14.1159 26.618C14.1159 26.8652 14.3274 27.0771 14.574 27.0771C14.6621 27.0771 14.7326 27.0418 14.803 27.0065C14.8118 27.0065 14.8162 27.0021 14.8207 26.9977C14.8251 26.9933 14.8295 26.9889 14.8383 26.9889C14.8471 26.9889 14.8515 26.9844 14.8559 26.98C14.8603 26.9756 14.8647 26.9712 14.8735 26.9712C14.8911 26.9712 14.9087 26.9535 14.9264 26.9359L14.9264 26.9359C14.9968 26.8476 15.0497 26.7416 15.0497 26.618C15.0497 26.3708 14.8383 26.1589 14.5916 26.1589H14.574C14.4154 26.1589 14.2921 26.2296 14.204 26.3355Z" fill="#2C39B3"/>
</svg>
